<?xml version="1.0" encoding="utf-8"?>
<!-- Generator: Adobe Illustrator 26.5.3, SVG Export Plug-In . SVG Version: 6.00 Build 0)  -->
<svg version="1.1" id="Layer_1" xmlns="http://www.w3.org/2000/svg" xmlns:xlink="http://www.w3.org/1999/xlink" x="0px" y="0px"
	 width="1816.8px" height="357.1px" viewBox="0 0 1816.8 357.1" style="enable-background:new 0 0 1816.8 357.1;"
	 xml:space="preserve">
<style type="text/css">
	.st0{fill:#FFFFFF;}
</style>
<g>
	<path class="st0" d="M46.6,143.4c0,0,33.7-14.6,90.5,3c51.1,15.9,117.1,61.8,206.9,168.4c0,0-26-64.2-62.8-119.9
		C248.6,145.7,161.1,44.7,46.6,143.4z"/>
	<path class="st0" d="M410.9,45c-21.6-2.6-68-2.8-68-2.8s-74.2-0.1-130.4,0.1C164.3,42.3,111.8,65.9,114,66
		c147.5,6.7,193.7,132.6,193.7,130.4v-78.1c0-1.2-0.9-2.1-2.1-2.1h-30.3c-1.2,0-2.1-0.9-2.1-2.1V95.8c0-1.2,0.9-2.1,2.1-2.1h30.3
		c1.2,0,2.1-0.9,2.1-2.1V62.2c0-1.2,0.9-2.1,2.1-2.1h18c1.2,0,2.1,0.9,2.1,2.1v29.3c0,1.2,0.9,2.1,2.1,2.1h30.6
		c1.2,0,2.1,0.9,2.1,2.1v18.4c0,1.2-0.9,2.1-2.1,2.1H332c-1.2,0-2.1,0.9-2.1,2.1L330,236c0,0.1,0,0.1,0,0.2
		c1.8,21.2,13.4,31.9,14.5,33c0.1,0.1,0.1,0.1,0.2,0.2c1.3,0.9,13.6,8.8,31.1-1.2c18.5-10.5,32.2-65.3,32.2-65.3l31.3-127.1
		c0-0.1,0-0.1,0-0.2C444.2,47.5,432.5,47.6,410.9,45z"/>
	<path class="st0" d="M543.6,140.9h-6.7c-8.8,0-14.8,1.1-17.7,3.4c-3.3,2.4-4.9,6.4-4.9,12.1v2h8.4c0-3.4,0.7-5.7,2-6.9
		c1.3-1.2,4.9-1.8,10.8-1.8h8.1v19.1c0,10.9-1.2,18.1-3.5,21.7c-2.4,3.7-6.5,5.5-12.2,5.5c-4,0-7.4-1.4-10.2-4.3
		c-2.7-2.9-4.2-6.6-4.5-11.2H504c0,7.5,2.1,13.5,6.5,18c4.2,4.6,9.9,6.9,16.9,6.9c4.7,0,9-1,12.8-3c3.8-2,6.7-4.9,8.8-8.7
		c1.4-2.3,2.4-4.9,2.9-8c0.6-3.1,0.9-7.4,0.9-13v-63.3h-9.3V140.9z"/>
	<path class="st0" d="M587.1,135.4c1.6-2.3,3-4.1,4.2-5.5c2.4-2.7,5-4.9,7.9-6.7c2.9-1.8,6-3.1,9.5-4c3.5-0.9,7-1.3,10.7-1.3h16.9
		c12.9,0,21,1.1,24.4,3.3c2.4,1.5,4.7,4.2,6.9,8.1h9.5c-0.4-5.2-2.2-9.2-5.2-12c-3.1-2.8-6.9-4.7-11.5-5.8s-10.1-1.7-16.4-1.9
		c-1.2,0-2.9-0.1-5.1-0.1c-2.7,0-4.7,0-6.1,0c-1.4,0-3,0.1-4.6,0.1c-8,0-13.8,0.3-17.2,0.8c-6.1,0.9-11,2.3-14.8,4.3
		c-4.1,2.2-8,5.1-11.7,8.8c-9.2,9.5-14,21-14.3,34.6l0.1,16.1c0.1,6.9,0.9,12.1,2.5,15.5c1.8,4,4.1,7,6.9,9c2.8,2,6.1,3.5,9.8,4.6
		v-8.8c-4-2.3-6.7-4.5-7.9-6.6c-1.5-2.5-2.4-7.1-2.8-13.6c0-6.4,1.5-11.4,4.4-15c3.1-4,8.1-5.9,15.1-5.9c4.2,0,7.8,0.8,10.6,2.5
		c3,1.8,5.1,3.8,6.5,5.9s2.3,4.8,2.7,7.9c0.4,3.1,0.6,7.4,0.6,12.9h9.1c0-5.4,0.2-9.7,0.6-12.8c0.4-3.1,1.3-5.7,2.7-7.9
		c1.4-2.1,3.6-4.1,6.6-6c2.8-1.7,6.3-2.5,10.6-2.5c7,0,12.1,2,15.1,5.9c2.9,3.7,4.4,8.7,4.4,15c-0.3,6.8-1.2,11.3-2.8,13.6
		c-1.5,2.2-4.1,4.5-7.9,6.6v8.8c3.7-1.1,6.9-2.6,9.7-4.6c2.8-2,5.1-5,6.9-9s2.8-9.2,2.8-15.6c0-8.5-2.1-15.5-6.3-21
		c-4.4-5.8-11.4-8.6-21-8.6c-5.3,0-10,0.9-14.1,2.6c-5.5,2.2-9.5,5.5-11.9,9.7c-2.2-4.2-6.2-7.5-11.8-9.7c-3.7-1.6-8.4-2.4-14.4-2.4
		c-5.7,0-11.1,1.7-16.4,5c0.1-2,0.8-4.3,2-7S585.6,137.7,587.1,135.4z"/>
	<path class="st0" d="M747.2,121.2c-2.5-3.7-5.8-6.5-9.8-8.3c-2.1-1-4.6-1.7-7.3-2.2c-2.8-0.5-5.1-0.7-7.2-0.7
		c-2.2,0-4.7,0.2-7.3,0.6c-2.6,0.4-5,1.2-7.3,2.3c-4.1,2-7.3,4.8-9.7,8.3c-1.7,2.6-2.9,5.5-3.5,8.8c-0.8,3.9-1.2,8.9-1.2,15.2v22.6
		c0,8,0.9,14.5,2.6,19.4c1.7,4.9,4,8.5,6.9,10.8s6.3,4.1,10.2,5.2v-8.7c-1.6-1-3.1-2.1-4.4-3.4c-1.4-1.2-2.4-2.5-3-3.7
		c-1.1-2.1-1.9-4.3-2.3-6.6c-0.6-3.1-1-7.7-1-13.6v-24.8c0-8.1,1.6-14.2,4.8-18.1c3.2-3.9,8.3-5.8,15.5-5.8c6.4,0,11.3,1.9,14.6,5.8
		c3.2,3.8,4.8,9.9,4.8,18.3v24.7c0,6.4-0.3,11-0.9,13.7c-0.6,2.6-1.4,4.8-2.4,6.5c-1.8,2.9-4.3,5.3-7.4,7v8.7
		c6.1-1.8,10.9-5.2,14.5-10.3c3.5-5.1,5.3-13.5,5.3-25.2v-22.6c0-7.1-0.3-12.2-1-15.2C749.9,126.5,748.7,123.6,747.2,121.2z"/>
	<path class="st0" d="M824.2,145.1h-9c-1.7,1.4-3.2,3.1-4.6,5.2c-1.3,1.9-1.9,3.7-1.9,5.4c0,1.9,0.5,3.9,1.6,6.3
		c1.1,2.3,2.2,4.7,3.3,7c1.1,2.3,1.6,4.4,1.6,6.3c0,6.2-2,11.5-5.9,15.8c-3.9,4.1-8.8,6.2-14.6,6.2c-2,0-4.4-0.6-7.1-1.7
		c-2.7-1.2-5.2-2.8-7.4-4.8c-2.2-2-3.7-4.2-4.5-6.6c-0.9-2.7-1.4-5.6-1.4-8.6v-66.3h-9.1V175c0,4.3,0.7,8.3,2,12
		c1.3,3.7,3.3,6.9,6,9.5c5.9,5.6,13,8.3,21.3,8.3c8.1,0,15.1-3,20.8-9c5.6-5.9,8.5-13.1,8.5-21.7c0-0.9-0.3-2.3-0.8-4.1
		c-0.5-1.8-1.1-3.5-1.9-5c-0.5-1-1.2-2.7-2.3-4.9c-1-2.2-1.4-3.7-1.4-4.6c0-1.2,0.6-2.7,1.8-4.5
		C820.2,149.8,821.9,147.8,824.2,145.1z"/>
	<path class="st0" d="M874.3,130.3v-21h-9V153h9v-13.7c6.2,0.9,11.3,3.5,15.3,7.7c5.2,5.4,7.7,12.3,7.7,20.7
		c0,8.3-2.6,15.2-7.7,20.7c-5.1,5.6-11.5,8.3-19.2,8.3c-7.8,0-14.3-2.8-19.4-8.3c-5.2-5.5-7.8-12.3-7.8-20.5c0-8.2,2.6-15,7.8-20.6
		c2.6-2.8,5.4-4.9,8.5-6.4v-9.1c-5.5,1.7-10.6,4.8-15.1,9.5c-7.1,7.4-10.7,16.3-10.7,26.7c0,10.3,3.6,19.1,10.7,26.5
		c7.1,7.3,15.8,11,26,11c10.1,0,18.7-3.7,25.9-11.2c7-7.5,10.6-16.5,10.6-27.1c0-10.1-3.6-18.8-10.8-26.1
		C889.9,134.7,882.7,131.2,874.3,130.3z"/>
	<path class="st0" d="M973.1,121.2c-2.5-3.7-5.8-6.5-9.8-8.3c-2.1-1-4.6-1.7-7.3-2.2c-2.8-0.5-5.1-0.7-7.2-0.7
		c-2.2,0-4.7,0.2-7.3,0.6c-2.6,0.4-5,1.2-7.3,2.3c-4.1,2-7.3,4.8-9.7,8.3c-1.7,2.6-2.9,5.5-3.5,8.8c-0.8,3.9-1.2,8.9-1.2,15.2v22.6
		c0,8,0.9,14.5,2.6,19.4c1.7,4.9,4,8.5,6.9,10.8s6.3,4.1,10.2,5.2v-8.7c-1.6-1-3.1-2.1-4.4-3.4c-1.4-1.2-2.4-2.5-3-3.7
		c-1.1-2.1-1.9-4.3-2.3-6.6c-0.6-3.1-1-7.7-1-13.6v-24.8c0-8.1,1.6-14.2,4.8-18.1c3.2-3.9,8.3-5.8,15.5-5.8c6.4,0,11.3,1.9,14.6,5.8
		c3.2,3.8,4.8,9.9,4.8,18.3v24.7c0,6.4-0.3,11-0.9,13.7c-0.6,2.6-1.4,4.8-2.4,6.5c-1.8,2.9-4.3,5.3-7.4,7v8.7
		c6.1-1.8,10.9-5.2,14.5-10.3c3.5-5.1,5.3-13.5,5.3-25.2v-22.6c0-7.1-0.3-12.2-1-15.2C975.8,126.5,974.6,123.6,973.1,121.2z"/>
	<path class="st0" d="M1039.6,142.9c-1.2-3.1-2.7-5.5-4.4-7.4c-2.5-2.6-5-4.6-7.6-6c-2.6-1.4-6.2-2.9-10.6-4.5
		c-5.1-1.9-9-3.9-11.7-5.9c-2.1-1.5-3.5-3.1-4.3-4.8c-0.9-2-1.3-4.1-1.3-6.3h-9.7c0,5.8,1.7,10.7,5,14.7c1.8,2.2,4.1,4,6.7,5.4
		c2.6,1.4,6,2.9,10.3,4.4c5,1.6,8.8,3.4,11.3,5.4c3.1,2.5,5.5,5.6,7,9.6c1.2,3.2,1.8,9.6,1.8,19.3c0,5.6-0.3,10.4-0.9,14.3
		c-0.5,3.3-1.9,6.4-4.2,9.4c-3.1,3.8-7.5,5.7-13.1,5.7c-4.8,0-8.9-1.9-12.4-5.8c-2.9-3.3-4.5-7.9-4.7-13.9h-9
		c0.2,8.6,2.6,15.6,7.4,20.8c4.8,5.3,11,7.9,18.6,7.9c8.9,0,15.7-2.7,20.5-8.2c2.8-3.3,4.9-7.7,6.2-13.4c1.1-4.6,1.6-10.1,1.6-16.3
		c0-3.9-0.2-8.4-0.6-13.6C1041.1,148.6,1040.4,145,1039.6,142.9z"/>
	<path class="st0" d="M1081.4,144.8c-7.5,0-14.1,2.7-19.8,8.1v-16.3c0-6.3,1.8-10.9,5.4-13.7c3.8-3,9.7-4.5,17.6-4.5h26.1v-9.1
		h-22.9c-6.4,0-11.1,0.3-14,0.9c-3,0.6-5.8,1.6-8.3,3c-4.1,2.5-7.3,5.7-9.5,9.7c-2.2,4-3.3,8.5-3.3,13.5V175c0,2.7,0.3,5.3,1,7.8
		c0.6,2.5,1.6,4.8,2.8,6.9c1.2,2.1,2.8,4.2,4.8,6.4c5.6,5.8,12.6,8.8,20.7,8.8c8.3,0,15.2-3,20.9-8.9c5.6-5.9,8.3-13.2,8.3-21.8
		c0-8-2.9-15-8.7-20.9C1096.7,147.6,1089.7,144.8,1081.4,144.8z M1096.6,191c-3.9,4.1-8.8,6.2-14.6,6.2c-5.9,0-10.8-2.1-14.6-6.2
		c-4-4.3-6.1-9.5-6.1-15.6c0-6.4,2-11.6,6.1-15.8c3.9-4.2,8.5-6.3,14-6.3c6.1,0,11.1,2,15.2,6.1c4,4.2,5.9,9.5,5.9,15.9
		C1102.6,181.5,1100.6,186.8,1096.6,191z"/>
	<path class="st0" d="M1180.5,129c-0.6-3.4-1.4-6.1-2.4-8.1c-2.2-4.1-5.2-7.1-8.8-9c-3.1-1.6-6.7-2.4-11-2.4
		c-3.2,0.1-5.9,0.7-8.2,1.8c-2.3,1.1-4.5,2.9-6.5,5.2c-1.2,1.3-2.3,3.3-3.4,6.1c-0.9-2.2-2-4.2-3.4-6.1c-3.5-4.4-7.8-6.7-13.1-6.7
		h-4.6v8.6h4.8c1.3,0,2.6,0.4,4,1.2c1.4,0.8,2.5,1.8,3.3,3c2.6,3.4,4,7.1,4.2,11.1h9.3c0.3-2.7,0.7-4.8,1.3-6.5
		c0.5-1.7,1.4-3.2,2.7-4.6c1.4-1.6,3-2.7,4.6-3.3c1.9-0.7,3.8-1.1,5.5-1.1c4.1,0,7.3,1.9,9.8,5.7c2.4,3.6,3.5,10.8,3.5,21.6v22.9
		c0,10.8-1.2,18-3.5,21.6c-2.4,3.7-6.5,5.5-12.2,5.5c-4,0-7.4-1.4-10.2-4.3c-2.7-2.8-4.2-6.6-4.4-11.2h-9.3c0,7.5,2.2,13.5,6.5,18
		c4.2,4.6,9.8,6.9,16.9,6.9c4.6,0,8.9-1,12.8-3c3.4-1.8,6.3-4.6,8.8-8.6c1.4-2.3,2.4-4.9,2.9-8c0.6-2.9,0.9-7.2,0.9-13V142
		c0-3-0.1-5.4-0.2-7.3C1181.1,132.9,1180.8,131,1180.5,129z"/>
	<path class="st0" d="M1324,118.8c-4.4-5.8-11.4-8.7-21.1-8.7c-4.3,0-8.1,0.7-11.4,2.2c-3.3,1.5-6.9,4.3-10.8,8.5
		c-2.1-3.7-5.1-6.6-8.9-8.6c-4-2-8.3-3-12.9-3c-5.6,0.3-10.2,2-13.9,5c-2,1.7-3.7,3.8-4.9,6.2c-1-1.9-2.2-3.5-3.5-4.8
		c-2.1-2.2-4.5-3.8-7.3-4.8c-2.8-1-6.1-1.6-9.7-1.6c-7.4,0.2-13.2,2.5-17.2,6.8c-4.6,4.8-6.8,10.9-6.8,18.4v21.2
		c0,13.5,4.6,25.3,13.7,35.3c3.6,4,7.4,7,11.3,9c4,2.1,8.1,3.5,12.2,4.2c4.3,0.7,8.9,1.1,13.9,1.1h23.3c6.9,0,13.4-0.5,19.5-1.5
		c5.5-0.9,10.2-2.7,14-5.6c3.8-2.9,5.9-7.2,6.3-12.8h-9.5c-2.3,4.1-4.6,6.8-6.9,8.2c-3.4,2.1-12.5,3.1-27.5,3.1H1244
		c-3.7-0.1-7.4-0.6-11.1-1.6c-3.7-1-6.6-2.1-8.8-3.4c-1.6-1-4.2-3.3-7.7-6.9c-7.4-7.7-11.1-17.3-11.1-28.8v-21.4
		c0-4.7,1.5-8.6,4.4-11.5c2.7-2.9,6.1-4.4,10.2-4.4c5.6,0,9.6,1.9,12.1,5.6c1.2,1.9,2.1,4.4,2.7,7.7c0.6,3.3,0.8,8.7,0.8,16.3v12.3
		h9.4l-0.1-12.4c0-7.5,0.4-13.2,1.2-17c0.7-3.9,1.8-6.5,3.3-8c2.8-2.9,6.2-4.4,10.2-4.4c5.7,0,9.8,1.9,12.2,5.6
		c1.2,1.9,2.1,4.2,2.7,7c0.7,4,1,9.7,1,16.9v12.4h8.9V148c0-6.5,0.1-10.9,0.4-13c0.4-2.7,1.4-5.3,3.1-7.8c1.4-2.2,3.6-4.1,6.6-5.9
		c3.1-1.8,6.2-2.6,9.5-2.6c5.8,0,10.2,2,13.3,6.1c2.9,3.7,4.4,8.8,4.4,15.1c-0.3,6.3-1.3,10.8-3,13.4c-1.8,2.7-4.4,5-7.7,6.8v8.9
		c2.8-0.8,5.2-1.8,7.4-3c2.5-1.5,4.6-3.1,6.2-5c1.6-1.8,2.9-4.7,4.1-8.5c1.1-3.5,1.6-7.7,1.7-12.6c0-4.3-0.6-8.3-1.7-11.9
		C1327.4,124.3,1325.9,121.3,1324,118.8z"/>
	<path class="st0" d="M1398.5,121.2c-2.5-3.7-5.8-6.5-9.8-8.3c-2.1-1-4.6-1.7-7.3-2.2c-2.8-0.5-5.1-0.7-7.2-0.7
		c-2.2,0-4.7,0.2-7.3,0.6c-2.6,0.4-5,1.2-7.3,2.3c-4.1,2-7.3,4.8-9.7,8.3c-1.7,2.6-2.9,5.5-3.5,8.8c-0.8,3.9-1.2,8.9-1.2,15.2v22.6
		c0,8,0.9,14.5,2.6,19.4c1.7,4.9,4,8.5,6.9,10.8s6.3,4.1,10.2,5.2v-8.7c-1.6-1-3.1-2.1-4.4-3.4c-1.4-1.2-2.4-2.5-3-3.7
		c-1.1-2.1-1.9-4.3-2.3-6.6c-0.6-3.1-1-7.7-1-13.6v-24.8c0-8.1,1.6-14.2,4.8-18.1c3.2-3.9,8.3-5.8,15.5-5.8c6.4,0,11.3,1.9,14.6,5.8
		c3.2,3.8,4.8,9.9,4.8,18.3v24.7c0,6.4-0.3,11-0.9,13.7c-0.6,2.6-1.4,4.8-2.4,6.5c-1.8,2.9-4.3,5.3-7.4,7v8.7
		c6.1-1.8,10.9-5.2,14.5-10.3c3.5-5.1,5.3-13.5,5.3-25.2v-22.6c0-7.1-0.3-12.2-1-15.2C1401.1,126.5,1400,123.6,1398.5,121.2z"/>
	<path class="st0" d="M1502.2,142.9c-1.2-3.1-2.7-5.5-4.4-7.4c-2.5-2.6-5-4.6-7.6-6c-2.6-1.4-6.2-2.9-10.6-4.5
		c-5.1-1.9-9-3.9-11.7-5.9c-2.1-1.5-3.5-3.1-4.3-4.8c-0.9-2-1.3-4.1-1.3-6.3h-9.7c0,5.8,1.7,10.7,5,14.7c1.8,2.2,4.1,4,6.7,5.4
		c2.6,1.4,6,2.9,10.3,4.4c5,1.6,8.8,3.4,11.3,5.4c3.1,2.5,5.5,5.6,7,9.6c1.2,3.2,1.8,9.6,1.8,19.3c0,5.6-0.3,10.4-0.9,14.3
		c-0.5,3.3-1.9,6.4-4.2,9.4c-3.1,3.8-7.5,5.7-13.1,5.7c-4.8,0-8.9-1.9-12.4-5.8c-2.9-3.3-4.5-7.9-4.7-13.9h-9
		c0.2,8.6,2.6,15.6,7.4,20.8c4.8,5.3,11,7.9,18.6,7.9c8.9,0,15.7-2.7,20.5-8.2c2.8-3.3,4.9-7.7,6.2-13.4c1.1-4.6,1.6-10.1,1.6-16.3
		c0-3.9-0.2-8.4-0.6-13.6C1503.7,148.6,1503.1,145,1502.2,142.9z"/>
	<path class="st0" d="M1534,135.4c1.6-2.3,3-4.1,4.2-5.5c2.4-2.7,5-4.9,7.9-6.7c2.9-1.8,6-3.1,9.5-4c3.5-0.9,7-1.3,10.7-1.3h16.9
		c12.9,0,21,1.1,24.4,3.3c2.4,1.5,4.7,4.2,6.9,8.1h9.5c-0.4-5.2-2.2-9.2-5.2-12c-3.1-2.8-6.9-4.7-11.5-5.8
		c-4.6-1.1-10.1-1.7-16.4-1.9c-1.2,0-2.9-0.1-5.1-0.1c-2.7,0-4.7,0-6.1,0c-1.4,0-3,0.1-4.6,0.1c-8,0-13.8,0.3-17.2,0.8
		c-6.1,0.9-11,2.3-14.8,4.3c-4.1,2.2-8,5.1-11.7,8.8c-9.2,9.5-14,21-14.3,34.6l0.1,16.1c0.1,6.9,0.9,12.1,2.5,15.5
		c1.8,4,4.1,7,6.9,9c2.8,2,6.1,3.5,9.8,4.6v-8.8c-4-2.3-6.7-4.5-7.9-6.6c-1.5-2.5-2.4-7.1-2.8-13.6c0-6.4,1.5-11.4,4.4-15
		c3.1-4,8.1-5.9,15.1-5.9c4.2,0,7.8,0.8,10.6,2.5c3,1.8,5.1,3.8,6.5,5.9c1.4,2.1,2.3,4.8,2.7,7.9c0.4,3.1,0.6,7.4,0.6,12.9h9.1
		c0-5.4,0.2-9.7,0.6-12.8c0.4-3.1,1.3-5.7,2.7-7.9c1.4-2.1,3.6-4.1,6.6-6c2.8-1.7,6.3-2.5,10.6-2.5c7,0,12.1,2,15.1,5.9
		c2.9,3.7,4.4,8.7,4.4,15c-0.3,6.8-1.2,11.3-2.8,13.6c-1.5,2.2-4.1,4.5-7.9,6.6v8.8c3.7-1.1,6.9-2.6,9.7-4.6c2.8-2,5.1-5,6.9-9
		c1.9-4,2.8-9.2,2.8-15.6c0-8.5-2.1-15.5-6.3-21c-4.4-5.8-11.4-8.6-21-8.6c-5.3,0-10,0.9-14.1,2.6c-5.5,2.2-9.5,5.5-11.9,9.7
		c-2.2-4.2-6.2-7.5-11.8-9.7c-3.7-1.6-8.4-2.4-14.4-2.4c-5.7,0-11.1,1.7-16.4,5c0.1-2,0.8-4.3,2-7S1532.4,137.7,1534,135.4z"/>
	<path class="st0" d="M1667.2,144.8c-7.5,0-14.1,2.7-19.8,8.1v-43.7h-9V175c0,8.2,2.9,15.2,8.6,21.1c5.6,5.9,12.6,8.8,20.7,8.8
		c8.1,0,15.1-3,20.8-9c5.6-6,8.5-13.2,8.5-21.7c0-8-2.9-15-8.7-20.9C1682.5,147.6,1675.5,144.8,1667.2,144.8z M1682.4,191
		c-3.9,4.1-8.8,6.2-14.6,6.2c-5.9,0-10.8-2.1-14.6-6.2c-4-4.3-6.1-9.5-6.1-15.6c0-6.4,2-11.6,6.1-15.8c3.9-4.2,8.5-6.3,14-6.3
		c6.1,0,11.1,2,15.2,6.1c4,4.2,5.9,9.5,5.9,15.9C1688.3,181.5,1686.3,186.8,1682.4,191z"/>
	<path class="st0" d="M1769.5,130.1c-0.8-3.6-1.9-6.5-3.4-8.8c-2.5-3.7-5.8-6.5-9.8-8.3c-2.1-1-4.6-1.7-7.3-2.2
		c-2.8-0.5-5.1-0.7-7.2-0.7c-2.2,0-4.7,0.2-7.3,0.6c-2.6,0.4-5,1.2-7.3,2.3c-4.1,2-7.3,4.8-9.7,8.3c-1.7,2.6-2.9,5.5-3.5,8.8
		c-0.8,3.9-1.2,8.9-1.2,15.2v22.6c0,8,0.9,14.5,2.6,19.4c1.7,4.9,4,8.5,6.9,10.8c2.9,2.3,6.3,4.1,10.2,5.2v-8.7
		c-1.6-1-3.1-2.1-4.4-3.4c-1.4-1.2-2.4-2.5-3-3.7c-1.1-2.1-1.9-4.3-2.3-6.6c-0.6-3.1-1-7.7-1-13.6v-24.8c0-8.1,1.6-14.2,4.8-18.1
		c3.2-3.9,8.3-5.8,15.5-5.8c6.4,0,11.3,1.9,14.6,5.8c3.2,3.8,4.8,9.9,4.8,18.3v24.7c0,6.4-0.3,11-0.9,13.7c-0.6,2.6-1.4,4.8-2.4,6.5
		c-1.8,2.9-4.3,5.3-7.4,7v8.7c6.1-1.8,10.9-5.2,14.5-10.3c3.5-5.1,5.3-13.5,5.3-25.2v-22.6C1770.6,138.2,1770.2,133.1,1769.5,130.1z
		"/>
</g>
</svg>
